<mxfile host="app.diagrams.net" modified="2023-07-10T02:12:39.085Z" agent="Mozilla/5.0 (Windows NT 10.0; Win64; x64) AppleWebKit/537.36 (KHTML, like Gecko) Chrome/114.0.0.0 Safari/537.36" version="21.6.1" etag="UnLIRhJxhUhl2pIeYRlF" type="github">
  <diagram name="페이지-1" id="UkbW-udPdIgMkYH4LjoJ">
    <mxGraphModel>
      <root>
        <mxCell id="0" />
        <mxCell id="1" parent="0" />
      </root>
    </mxGraphModel>
  </diagram>
</mxfile>
